<?xml version="1.0" encoding="UTF-8" standalone="no"?>
<svg
   xmlns:dc="http://purl.org/dc/elements/1.1/"
   xmlns:cc="http://creativecommons.org/ns#"
   xmlns:rdf="http://www.w3.org/1999/02/22-rdf-syntax-ns#"
   xmlns:svg="http://www.w3.org/2000/svg"
   xmlns="http://www.w3.org/2000/svg"
   xmlns:sodipodi="http://sodipodi.sourceforge.net/DTD/sodipodi-0.dtd"
   xmlns:inkscape="http://www.inkscape.org/namespaces/inkscape"
   id="svg6"
   version="1.1"
   width="16"
   height="16"
   sodipodi:docname="resize-segment-symbolic.svg"
   inkscape:version="0.92.3 (2405546, 2018-03-11)">
  <sodipodi:namedview
     pagecolor="#ffffff"
     bordercolor="#666666"
     borderopacity="1"
     objecttolerance="10"
     gridtolerance="10"
     guidetolerance="10"
     inkscape:pageopacity="0"
     inkscape:pageshadow="2"
     inkscape:window-width="1920"
     inkscape:window-height="1017"
     id="namedview6"
     showgrid="true"
     inkscape:zoom="45.254834"
     inkscape:cx="1.2223423"
     inkscape:cy="9.0906759"
     inkscape:window-x="0"
     inkscape:window-y="30"
     inkscape:window-maximized="1"
     inkscape:current-layer="svg6"
     showguides="false"
     inkscape:snap-global="true"
     inkscape:snap-object-midpoints="false"
     inkscape:snap-smooth-nodes="true"
     inkscape:object-paths="true">
    <inkscape:grid
       type="xygrid"
       id="grid8" />
  </sodipodi:namedview>
  <metadata
     id="metadata12">
    <rdf:RDF>
      <cc:Work
         rdf:about="">
        <dc:format>image/svg+xml</dc:format>
        <dc:type
           rdf:resource="http://purl.org/dc/dcmitype/StillImage" />
        <dc:title />
      </cc:Work>
    </rdf:RDF>
  </metadata>
  <defs
     id="defs10">
    <inkscape:path-effect
       effect="ellipse_5pts"
       id="path-effect4535"
       is_visible="true" />
    <inkscape:path-effect
       effect="join_type"
       id="path-effect4533"
       is_visible="true"
       linecap_type="butt"
       line_width="1"
       linejoin_type="round"
       miter_limit="100.7"
       attempt_force_join="true" />
  </defs>
  <g
     inkscape:groupmode="layer"
     id="layer1"
     inkscape:label="Key"
     style="display:none"
     sodipodi:insensitive="true">
    <rect
       style="fill:none;stroke:#666666;stroke-width:2;stroke-miterlimit:4;stroke-dasharray:none;stroke-opacity:1"
       id="rect4537"
       width="13"
       height="13"
       x="1"
       y="1"
       ry="2.4209418" />
  </g>
  <path
     style="color:#000000;font-style:normal;font-variant:normal;font-weight:normal;font-stretch:normal;font-size:medium;line-height:normal;font-family:sans-serif;font-variant-ligatures:normal;font-variant-position:normal;font-variant-caps:normal;font-variant-numeric:normal;font-variant-alternates:normal;font-feature-settings:normal;text-indent:0;text-align:start;text-decoration:none;text-decoration-line:none;text-decoration-style:solid;text-decoration-color:#000000;letter-spacing:normal;word-spacing:normal;text-transform:none;writing-mode:lr-tb;direction:ltr;text-orientation:mixed;dominant-baseline:auto;baseline-shift:baseline;text-anchor:start;white-space:normal;shape-padding:0;clip-rule:nonzero;display:inline;overflow:visible;visibility:visible;opacity:1;isolation:auto;mix-blend-mode:normal;color-interpolation:sRGB;color-interpolation-filters:linearRGB;solid-color:#000000;solid-opacity:1;vector-effect:none;fill:#666666;fill-opacity:1;fill-rule:nonzero;stroke:none;stroke-width:1;stroke-linecap:butt;stroke-linejoin:miter;stroke-miterlimit:4;stroke-dasharray:none;stroke-dashoffset:0;stroke-opacity:1;color-rendering:auto;image-rendering:auto;shape-rendering:auto;text-rendering:auto;enable-background:accumulate"
     d="M 3,0 C 1.9583333,0 1.1786192,0.11434953 0.64648438,0.64648438 0.11434953,1.1786192 0,1.9583333 0,3 v 10 c 0,1.041667 0.11434953,1.821381 0.64648438,2.353516 C 1.1786192,15.88565 1.9583333,16 3,16 H 8 C 9.0416667,16 9.8213808,15.88565 10.353516,15.353516 10.88565,14.821381 11,14.041667 11,13 v -1 h -1 v 1 C 10,13.958333 9.8643495,14.428619 9.6464844,14.646484 9.4286192,14.86435 8.9583333,15 8,15 H 3 C 2.0416667,15 1.5713808,14.86435 1.3535156,14.646484 1.1356505,14.428619 1,13.958333 1,13 V 3 C 1,2.0416667 1.1356505,1.5713808 1.3535156,1.3535156 1.5713808,1.1356505 2.0416667,1 3,1 3.9583333,1 4.4286192,1.1356505 4.6464844,1.3535156 4.8643495,1.5713808 5,2.0416667 5,3 5,3.4027778 5.0273077,3.735059 5.140625,4.0410156 5.2539423,4.3469723 5.490463,4.6163252 5.7773438,4.7597656 6.3511053,5.0466464 7,5 8,5 8.9583333,5 9.4286192,5.1356505 9.6464844,5.3535156 9.8643495,5.5713808 10,6.0416667 10,7 v 1 h 1 V 7 C 11,5.9583333 10.88565,5.1786192 10.353516,4.6464844 9.8213808,4.1143495 9.0416667,4 8,4 7,4 6.3988947,3.9533536 6.2226562,3.8652344 6.134537,3.8211748 6.1210577,3.8092777 6.078125,3.6933594 6.0351923,3.577441 6,3.3472222 6,3 6,1.9583333 5.8856505,1.1786192 5.3535156,0.64648438 4.8213808,0.11434953 4.0416667,0 3,0 Z"
     id="rect4537-3"
     inkscape:connector-curvature="0" />
  <path
     style="color:#000000;font-style:normal;font-variant:normal;font-weight:normal;font-stretch:normal;font-size:medium;line-height:normal;font-family:sans-serif;font-variant-ligatures:normal;font-variant-position:normal;font-variant-caps:normal;font-variant-numeric:normal;font-variant-alternates:normal;font-feature-settings:normal;text-indent:0;text-align:start;text-decoration:none;text-decoration-line:none;text-decoration-style:solid;text-decoration-color:#000000;letter-spacing:normal;word-spacing:normal;text-transform:none;writing-mode:lr-tb;direction:ltr;text-orientation:mixed;dominant-baseline:auto;baseline-shift:baseline;text-anchor:start;white-space:normal;shape-padding:0;clip-rule:nonzero;display:inline;overflow:visible;visibility:visible;opacity:1;isolation:auto;mix-blend-mode:normal;color-interpolation:sRGB;color-interpolation-filters:linearRGB;solid-color:#000000;solid-opacity:1;vector-effect:none;fill:#666666;fill-opacity:1;fill-rule:nonzero;stroke:none;stroke-width:2;stroke-linecap:butt;stroke-linejoin:miter;stroke-miterlimit:4;stroke-dasharray:none;stroke-dashoffset:0;stroke-opacity:1;color-rendering:auto;image-rendering:auto;shape-rendering:auto;text-rendering:auto;enable-background:accumulate"
     d="m 6.5,9 v 2 h 8 V 9 Z"
     id="path852"
     inkscape:connector-curvature="0" />
  <path
     inkscape:connector-curvature="0"
     id="path856"
     d="m 8,7 v 6 L 5,10 Z"
     style="fill:#666666;fill-opacity:1;stroke:none;stroke-width:1px;stroke-linecap:butt;stroke-linejoin:miter;stroke-opacity:1"
     sodipodi:nodetypes="cccc" />
  <path
     style="fill:#666666;fill-opacity:1;stroke:none;stroke-width:1px;stroke-linecap:butt;stroke-linejoin:miter;stroke-opacity:1"
     d="m 13,7 v 6 l 3,-3 z"
     id="path858"
     inkscape:connector-curvature="0"
     sodipodi:nodetypes="cccc" />
</svg>
